<?xml version="1.0" encoding="UTF-8" standalone="no"?>
<!-- Created with Inkscape (http://www.inkscape.org/) -->

<svg
   width="500mm"
   height="500mm"
   viewBox="0 0 500 500"
   version="1.1"
   id="svg1"
   inkscape:version="1.4 (86a8ad7, 2024-10-11)"
   sodipodi:docname="loga.svg"
   xmlns:inkscape="http://www.inkscape.org/namespaces/inkscape"
   xmlns:sodipodi="http://sodipodi.sourceforge.net/DTD/sodipodi-0.dtd"
   xmlns="http://www.w3.org/2000/svg"
   xmlns:svg="http://www.w3.org/2000/svg">
  <sodipodi:namedview
     id="namedview1"
     pagecolor="#ffffff"
     bordercolor="#000000"
     borderopacity="0.25"
     inkscape:showpageshadow="2"
     inkscape:pageopacity="0.0"
     inkscape:pagecheckerboard="0"
     inkscape:deskcolor="#d1d1d1"
     inkscape:document-units="mm"
     showguides="false"
     inkscape:zoom="0.42894571"
     inkscape:cx="376.50453"
     inkscape:cy="793.80676"
     inkscape:window-width="2160"
     inkscape:window-height="1244"
     inkscape:window-x="-11"
     inkscape:window-y="-11"
     inkscape:window-maximized="1"
     inkscape:current-layer="layer1" />
  <defs
     id="defs1" />
  <g
     inkscape:label="Warstwa 1"
     inkscape:groupmode="layer"
     id="layer1">
    <path
       id="path1"
       style="fill:#ffffff;fill-opacity:0;stroke:#000000;stroke-width:2.27712;stroke-linejoin:round;stroke-dasharray:none;stroke-opacity:1"
       d="m 401.08425,23.196145 a 40.015061,40.015061 0 0 0 -38.59265,29.654177 14.672189,14.672189 0 0 0 -9.76619,-3.72578 14.672189,14.672189 0 0 0 -14.67223,14.67223 14.672189,14.672189 0 0 0 0.0358,0.50153 24.453649,24.453649 0 0 0 -21.39209,24.2346 24.453649,24.453649 0 0 0 24.45348,24.453478 24.453649,24.453649 0 0 0 0.58836,-0.0421 v 0.31066 h 95.13309 v -0.28219 a 24.453649,24.453649 0 0 0 0.19087,0.0137 24.453649,24.453649 0 0 0 24.45371,-24.453478 24.453649,24.453649 0 0 0 -20.50248,-24.12611 40.015061,40.015061 0 0 0 0.0854,-1.19556 40.015061,40.015061 0 0 0 -40.01509,-40.015087 z" />
    <path
       id="path2"
       style="fill:#963d97;fill-opacity:1;stroke:#963d97;stroke-width:5;stroke-linejoin:round;stroke-dasharray:none;stroke-opacity:1"
       d="M 341.79671 339.86918 L 111.54978 339.86918 C 123.63819 362.93543 141.29284 381.30896 164.07474 386.74745 C 187.53821 392.34864 199.8322 344.51279 223.90675 346.03728 C 242.8049 347.23398 247.54067 383.07302 266.46746 383.6634 C 293.98477 384.52175 328.54909 365.24461 341.79671 339.86918 z " />
    <path
       id="path27"
       style="fill:#df3a3e;fill-opacity:1;stroke:#df3a3e;stroke-width:4.99999;stroke-linejoin:round;stroke-dasharray:none;stroke-opacity:1"
       d="M 338.37211 304.71008 L 98.188322 304.71008 C 101.36365 316.90456 105.80892 328.91486 111.54978 339.86918 L 341.79671 339.86918 C 344.97534 333.7806 346.94057 327.34532 347.27079 320.74786 C 347.60901 313.9906 343.89504 308.97885 338.37211 304.71008 z " />
    <path
       id="path26"
       style="fill:#f6821f;fill-opacity:1;stroke:#f6821f;stroke-width:4.99999;stroke-linejoin:round;stroke-dasharray:none;stroke-opacity:1"
       d="M 92.523551 257.21479 C 92.008992 271.98745 93.968656 288.50496 98.188322 304.71008 L 338.37211 304.71008 C 323.95107 293.56383 296.79338 287.64634 294.22442 270.16801 C 293.52355 265.39955 293.19165 261.11659 293.14386 257.21479 L 92.523551 257.21479 z " />
    <path
       id="path25"
       style="fill:#61bc45;fill-opacity:1;stroke:#61bc45;stroke-width:4.99999;stroke-linejoin:round;stroke-dasharray:none;stroke-opacity:1"
       d="M 218.42801 208.48598 C 208.31006 190.05454 183.6243 150.11769 160.37367 152.35504 C 133.95793 154.89697 114.27797 179.91394 103.07588 208.48598 L 218.42801 208.48598 z " />
    <path
       id="path24"
       style="fill:#61bc45;fill-opacity:1;stroke:#61bc45;stroke-width:4.99999;stroke-linejoin:round;stroke-dasharray:none;stroke-opacity:1"
       d="M 348.38545 208.48598 C 349.50271 206.56481 350.03791 204.18242 349.73834 201.08437 C 347.74428 180.46209 322.9458 161.79739 302.24305 160.99069 C 278.04492 160.04779 245.95906 192.1709 231.26702 208.48598 L 348.38545 208.48598 z " />
    <path
       id="path23"
       style="fill:#fcb827;fill-opacity:1;stroke:#fcb827;stroke-width:5;stroke-linejoin:round;stroke-dasharray:none;stroke-opacity:1"
       d="M 348.38545 208.48598 L 231.26702 208.48598 C 226.2958 214.00638 223.28973 217.73813 223.28973 217.73813 C 223.28973 217.73813 221.41165 213.92115 218.42801 208.48598 L 103.07588 208.48598 C 96.704173 224.73765 93.049005 242.12936 92.523551 257.21479 L 293.14386 257.21479 C 292.54582 208.38188 339.60042 223.59222 348.38545 208.48598 z " />
    <path
       style="fill:#61bc45;fill-opacity:0;stroke:#000000;stroke-width:0;stroke-linejoin:round;stroke-dasharray:none;stroke-opacity:1"
       d="m 410.59716,765.30507 c 43.21897,-94.98553 104.26427,-156.98843 171.9432,-174.64042 22.12128,-5.76966 39.85119,-5.80203 55.92411,-0.10209 41.23968,14.62482 87.57122,60.15805 136.29113,133.94272 15.76118,23.86977 32.17349,50.65838 32.17349,52.51442 0,0.58358 -90.48262,1.06106 -201.07247,1.06106 H 404.78414 Z"
       id="path28"
       transform="scale(0.26458333)" />
    <path
       style="fill:#61bc45;fill-opacity:0;stroke:#000000;stroke-width:0;stroke-linejoin:round;stroke-dasharray:none;stroke-opacity:1"
       d="m 410.59716,765.30507 c 43.21897,-94.98553 104.26427,-156.98843 171.9432,-174.64042 22.12128,-5.76966 39.85119,-5.80203 55.92411,-0.10209 41.23968,14.62482 87.57122,60.15805 136.29113,133.94272 15.76118,23.86977 32.17349,50.65838 32.17349,52.51442 0,0.58358 -90.48262,1.06106 -201.07247,1.06106 H 404.78414 Z"
       id="path29"
       transform="scale(0.26458333)" />
    <path
       style="fill:#61bc45;fill-opacity:0;stroke:#000000;stroke-width:0;stroke-linejoin:round;stroke-dasharray:none;stroke-opacity:1"
       d="m 410.59716,765.30507 c 43.21897,-94.98553 104.26427,-156.98843 171.9432,-174.64042 22.12128,-5.76966 39.85119,-5.80203 55.92411,-0.10209 41.23968,14.62482 87.57122,60.15805 136.29113,133.94272 15.76118,23.86977 32.17349,50.65838 32.17349,52.51442 0,0.58358 -90.48262,1.06106 -201.07247,1.06106 H 404.78414 Z"
       id="path30"
       transform="scale(0.26458333)" />
    <path
       style="fill:#61bc45;fill-opacity:0;stroke:#000000;stroke-width:0;stroke-linejoin:round;stroke-dasharray:none;stroke-opacity:1"
       d="m 410.59716,765.30507 c 43.21897,-94.98553 104.26427,-156.98843 171.9432,-174.64042 22.12128,-5.76966 39.85119,-5.80203 55.92411,-0.10209 41.23968,14.62482 87.57122,60.15805 136.29113,133.94272 15.76118,23.86977 32.17349,50.65838 32.17349,52.51442 0,0.58358 -90.48262,1.06106 -201.07247,1.06106 H 404.78414 Z"
       id="path31"
       transform="scale(0.26458333)" />
    <path
       style="fill:#61bc45;fill-opacity:0;stroke:#000000;stroke-width:0;stroke-linejoin:round;stroke-dasharray:none;stroke-opacity:1"
       d="m 410.59716,765.30507 c 43.21897,-94.98553 104.26427,-156.98843 171.9432,-174.64042 22.12128,-5.76966 39.85119,-5.80203 55.92411,-0.10209 41.23968,14.62482 87.57122,60.15805 136.29113,133.94272 15.76118,23.86977 32.17349,50.65838 32.17349,52.51442 0,0.58358 -90.48262,1.06106 -201.07247,1.06106 H 404.78414 Z"
       id="path32"
       transform="scale(0.26458333)" />
    <path
       style="fill:#61bc45;fill-opacity:0;stroke:#000000;stroke-width:0;stroke-linejoin:round;stroke-dasharray:none;stroke-opacity:1"
       d="m 410.59716,765.30507 c 43.21897,-94.98553 104.26427,-156.98843 171.9432,-174.64042 22.12128,-5.76966 39.85119,-5.80203 55.92411,-0.10209 41.23968,14.62482 87.57122,60.15805 136.29113,133.94272 15.76118,23.86977 32.17349,50.65838 32.17349,52.51442 0,0.58358 -90.48262,1.06106 -201.07247,1.06106 H 404.78414 Z"
       id="path33"
       transform="scale(0.26458333)" />
    <path
       style="fill:#61bc45;fill-opacity:0;stroke:#000000;stroke-width:0;stroke-linejoin:round;stroke-dasharray:none;stroke-opacity:1"
       d="m 410.59716,765.30507 c 43.21897,-94.98553 104.26427,-156.98843 171.9432,-174.64042 22.12128,-5.76966 39.85119,-5.80203 55.92411,-0.10209 41.23968,14.62482 87.57122,60.15805 136.29113,133.94272 15.76118,23.86977 32.17349,50.65838 32.17349,52.51442 0,0.58358 -90.48262,1.06106 -201.07247,1.06106 H 404.78414 Z"
       id="path34"
       transform="scale(0.26458333)" />
    <path
       style="fill:#61bc45;fill-opacity:0;stroke:#000000;stroke-width:0;stroke-linejoin:round;stroke-dasharray:none;stroke-opacity:1"
       d="m 410.59716,765.30507 c 43.21897,-94.98553 104.26427,-156.98843 171.9432,-174.64042 22.12128,-5.76966 39.85119,-5.80203 55.92411,-0.10209 41.23968,14.62482 87.57122,60.15805 136.29113,133.94272 15.76118,23.86977 32.17349,50.65838 32.17349,52.51442 0,0.58358 -90.48262,1.06106 -201.07247,1.06106 H 404.78414 Z"
       id="path35"
       transform="scale(0.26458333)" />
    <path
       style="fill:#61bc45;fill-opacity:0;stroke:#000000;stroke-width:0;stroke-linejoin:round;stroke-dasharray:none;stroke-opacity:1"
       d="m 410.59716,765.30507 c 43.21897,-94.98553 104.26427,-156.98843 171.9432,-174.64042 22.12128,-5.76966 39.85119,-5.80203 55.92411,-0.10209 41.23968,14.62482 87.57122,60.15805 136.29113,133.94272 15.76118,23.86977 32.17349,50.65838 32.17349,52.51442 0,0.58358 -90.48262,1.06106 -201.07247,1.06106 H 404.78414 Z"
       id="path36"
       transform="scale(0.26458333)" />
    <path
       style="fill:#61bc45;fill-opacity:0;stroke:#000000;stroke-width:0;stroke-linejoin:round;stroke-dasharray:none;stroke-opacity:1"
       d="m 410.59716,765.30507 c 43.21897,-94.98553 104.26427,-156.98843 171.9432,-174.64042 22.12128,-5.76966 39.85119,-5.80203 55.92411,-0.10209 41.23968,14.62482 87.57122,60.15805 136.29113,133.94272 15.76118,23.86977 32.17349,50.65838 32.17349,52.51442 0,0.58358 -90.48262,1.06106 -201.07247,1.06106 H 404.78414 Z"
       id="path37"
       transform="scale(0.26458333)" />
    <path
       style="fill:#61bc45;fill-opacity:0;stroke:#000000;stroke-width:0;stroke-linejoin:round;stroke-dasharray:none;stroke-opacity:1"
       d="m 410.59716,765.30507 c 43.21897,-94.98553 104.26427,-156.98843 171.9432,-174.64042 22.12128,-5.76966 39.85119,-5.80203 55.92411,-0.10209 41.23968,14.62482 87.57122,60.15805 136.29113,133.94272 15.76118,23.86977 32.17349,50.65838 32.17349,52.51442 0,0.58358 -90.48262,1.06106 -201.07247,1.06106 H 404.78414 Z"
       id="path38"
       transform="scale(0.26458333)" />
    <path
       style="fill:#61bc45;fill-opacity:0;stroke:#000000;stroke-width:0;stroke-linejoin:round;stroke-dasharray:none;stroke-opacity:1"
       d="m 410.59716,765.30507 c 43.21897,-94.98553 104.26427,-156.98843 171.9432,-174.64042 22.12128,-5.76966 39.85119,-5.80203 55.92411,-0.10209 41.23968,14.62482 87.57122,60.15805 136.29113,133.94272 15.76118,23.86977 32.17349,50.65838 32.17349,52.51442 0,0.58358 -90.48262,1.06106 -201.07247,1.06106 H 404.78414 Z"
       id="path39"
       transform="scale(0.26458333)" />
    <path
       style="fill:#61bc45;fill-opacity:0;stroke:#000000;stroke-width:0;stroke-linejoin:round;stroke-dasharray:none;stroke-opacity:1"
       d="m 410.59716,765.30507 c 43.21897,-94.98553 104.26427,-156.98843 171.9432,-174.64042 22.12128,-5.76966 39.85119,-5.80203 55.92411,-0.10209 41.23968,14.62482 87.57122,60.15805 136.29113,133.94272 15.76118,23.86977 32.17349,50.65838 32.17349,52.51442 0,0.58358 -90.48262,1.06106 -201.07247,1.06106 H 404.78414 Z"
       id="path40"
       transform="scale(0.26458333)" />
    <path
       style="fill:#61bc45;fill-opacity:0;stroke:#000000;stroke-width:0;stroke-linejoin:round;stroke-dasharray:none;stroke-opacity:1"
       d="m 410.59716,765.30507 c 43.21897,-94.98553 104.26427,-156.98843 171.9432,-174.64042 22.12128,-5.76966 39.85119,-5.80203 55.92411,-0.10209 41.23968,14.62482 87.57122,60.15805 136.29113,133.94272 15.76118,23.86977 32.17349,50.65838 32.17349,52.51442 0,0.58358 -90.48262,1.06106 -201.07247,1.06106 H 404.78414 Z"
       id="path41"
       transform="scale(0.26458333)" />
    <path
       style="fill:#61bc45;fill-opacity:1;stroke:#61bca5;stroke-width:0;stroke-linejoin:round;stroke-dasharray:none;stroke-opacity:1"
       d="m 410.59716,765.30507 c 43.21897,-94.98553 104.26427,-156.98843 171.9432,-174.64042 22.12128,-5.76966 39.85119,-5.80203 55.92411,-0.10209 41.23968,14.62482 87.57122,60.15805 136.29113,133.94272 15.76118,23.86977 32.17349,50.65838 32.17349,52.51442 0,0.58358 -90.48262,1.06106 -201.07247,1.06106 H 404.78414 Z"
       id="path42"
       transform="scale(0.26458333)" />
    <path
       id="path44"
       style="fill:#61bc45;fill-opacity:1;stroke:#61bc45;stroke-width:6.54185;stroke-linejoin:round;stroke-dasharray:none;stroke-opacity:1"
       d="m 245.78666,140.46017 a 24.816267,24.816267 0 0 0 -12.995,10.02791 24.816267,24.816267 0 0 0 -3.82822,15.41631 24.412751,24.412751 0 0 0 13.03093,-9.95641 24.412751,24.412751 0 0 0 3.79229,-15.48781 z" />
  </g>
</svg>
