<?xml version="1.0" encoding="UTF-8" standalone="no"?>
<!-- Created with Inkscape (http://www.inkscape.org/) -->

<svg
   width="210mm"
   height="297mm"
   viewBox="0 0 210 297"
   version="1.1"
   id="svg1"
   inkscape:version="1.4 (86a8ad7, 2024-10-11)"
   sodipodi:docname="Karta.svg"
   xmlns:inkscape="http://www.inkscape.org/namespaces/inkscape"
   xmlns:sodipodi="http://sodipodi.sourceforge.net/DTD/sodipodi-0.dtd"
   xmlns="http://www.w3.org/2000/svg"
   xmlns:svg="http://www.w3.org/2000/svg">
  <sodipodi:namedview
     id="namedview1"
     pagecolor="#ffffff"
     bordercolor="#000000"
     borderopacity="0.25"
     inkscape:showpageshadow="2"
     inkscape:pageopacity="0.0"
     inkscape:pagecheckerboard="0"
     inkscape:deskcolor="#d1d1d1"
     inkscape:document-units="mm"
     inkscape:zoom="1.7157828"
     inkscape:cx="628.57605"
     inkscape:cy="1090.7558"
     inkscape:window-width="2160"
     inkscape:window-height="1244"
     inkscape:window-x="-11"
     inkscape:window-y="-11"
     inkscape:window-maximized="1"
     inkscape:current-layer="layer1" />
  <defs
     id="defs1" />
  <g
     inkscape:label="Warstwa 1"
     inkscape:groupmode="layer"
     id="layer1">
    <rect
       style="fill:#ffffff;stroke:#000000;stroke-width:2.82786;stroke-dasharray:none"
       id="rect1"
       width="198.0818"
       height="284.67047"
       x="6.1724916"
       y="5.7737489" />
    <path
       style="fill:#ff0000;stroke:#000000;stroke-width:1.43614;stroke-dasharray:none;stroke-opacity:0"
       d="m 105.55444,142.21474 c 0,0 6.32955,-10.74838 10.90331,-10.20767 4.90434,0.5798 8.77356,8.33055 8.25116,13.86911 -0.92485,9.80546 -18.85979,20.5263 -18.85979,20.5263 0,0 -16.526403,-9.72499 -17.582834,-18.75105 -0.680074,-5.81049 1.491572,-14.72595 8.15293,-14.97864 4.672424,-0.17724 9.135224,9.54195 9.135224,9.54195 z"
       id="path9"
       sodipodi:nodetypes="csacasc" />
    <path
       style="fill:#ff0000;stroke:#000000;stroke-width:1.43614;stroke-dasharray:none;stroke-opacity:0"
       d="m 51.320791,223.63425 c 0,0 6.32955,-10.74838 10.90331,-10.20767 4.90434,0.5798 8.77356,8.33055 8.25116,13.86911 -0.92485,9.80546 -18.85979,20.5263 -18.85979,20.5263 0,0 -16.526402,-9.72499 -17.582833,-18.75105 -0.680074,-5.81049 1.491572,-14.72595 8.152933,-14.97864 4.67242,-0.17724 9.13522,9.54195 9.13522,9.54195 z"
       id="path9-8"
       sodipodi:nodetypes="csacasc" />
    <path
       style="fill:#ff0000;stroke:#000000;stroke-width:1.43614;stroke-dasharray:none;stroke-opacity:0"
       d="m 158.83856,222.82812 c 0,0 6.32955,-10.74838 10.90331,-10.20767 4.90434,0.5798 8.77356,8.33055 8.25116,13.86911 -0.92485,9.80546 -18.85979,20.5263 -18.85979,20.5263 0,0 -16.5264,-9.72499 -17.58283,-18.75105 -0.68008,-5.81049 1.49157,-14.72595 8.15293,-14.97864 4.67242,-0.17724 9.13522,9.54195 9.13522,9.54195 z"
       id="path9-8-5"
       sodipodi:nodetypes="csacasc"
       inkscape:transform-center-x="3.9249318"
       inkscape:transform-center-y="6.4845415" />
    <path
       style="fill:#ff0000;stroke:#000000;stroke-width:1.43614;stroke-dasharray:none;stroke-opacity:0"
       d="m 157.81286,46.105031 c 0,0 6.32955,-10.74838 10.90331,-10.20767 4.90434,0.5798 8.77356,8.33055 8.25116,13.86911 -0.92485,9.80546 -18.85979,20.5263 -18.85979,20.5263 0,0 -16.5264,-9.72499 -17.58283,-18.75105 -0.68008,-5.81049 1.49157,-14.72595 8.15293,-14.97864 4.67242,-0.17724 9.13522,9.54195 9.13522,9.54195 z"
       id="path9-8-5-1"
       sodipodi:nodetypes="csacasc"
       inkscape:transform-center-x="3.9249318"
       inkscape:transform-center-y="6.4845415" />
    <path
       style="fill:#ff0000;stroke:#000000;stroke-width:1.43614;stroke-dasharray:none;stroke-opacity:0"
       d="m 49.130618,47.851916 c 0,0 6.32955,-10.74838 10.90331,-10.20767 4.90434,0.5798 8.77356,8.33055 8.25116,13.86911 -0.92485,9.80546 -18.85979,20.5263 -18.85979,20.5263 0,0 -16.5264,-9.72499 -17.58283,-18.75105 -0.68008,-5.81049 1.49157,-14.72595 8.15293,-14.97864 4.67242,-0.17724 9.13522,9.54195 9.13522,9.54195 z"
       id="path9-8-5-1-7"
       sodipodi:nodetypes="csacasc"
       inkscape:transform-center-x="3.9249318"
       inkscape:transform-center-y="6.4845415" />
    <text
       xml:space="preserve"
       style="font-size:25.4px;text-align:start;writing-mode:lr-tb;direction:ltr;text-anchor:start;fill:#ff0000;stroke:#000000;stroke-width:3;stroke-dasharray:none;stroke-opacity:0"
       x="13.724299"
       y="32.228973"
       id="text9"><tspan
         sodipodi:role="line"
         id="tspan9"
         style="fill:#000000;stroke-width:3;font-size:25.4px"
         x="13.724299"
         y="32.228973">5</tspan></text>
    <text
       xml:space="preserve"
       style="font-size:25.4px;text-align:start;writing-mode:lr-tb;direction:ltr;text-anchor:start;fill:#000000;stroke:#000000;stroke-width:3;stroke-dasharray:none;stroke-opacity:0"
       x="174.71495"
       y="280.80838"
       id="text10"><tspan
         sodipodi:role="line"
         id="tspan10"
         style="stroke-width:3"
         x="174.71495"
         y="280.80838">5</tspan></text>
  </g>
</svg>
